<?xml version="1.0" encoding="UTF-8" standalone="no"?><!DOCTYPE svg PUBLIC "-//W3C//DTD SVG 1.1//EN" "http://www.w3.org/Graphics/SVG/1.1/DTD/svg11.dtd"><svg width="100%" height="100%" viewBox="0 0 107 107" version="1.1" xmlns="http://www.w3.org/2000/svg" xmlns:xlink="http://www.w3.org/1999/xlink" xml:space="preserve" xmlns:serif="http://www.serif.com/" style="fill-rule:evenodd;clip-rule:evenodd;stroke-linejoin:round;stroke-miterlimit:2;"><g><path d="M88.134,58.405l-11.572,0l0,26.548c0,11.729 -9.508,21.238 -21.237,21.238l-34.088,0c-11.728,0 -21.236,-9.509 -21.236,-21.238l0,-63.715c0,-11.729 9.507,-21.238 21.236,-21.238l34.089,0c11.729,0 21.237,9.509 21.237,21.238l0,26.548l1.693,-0.001l9.771,0l-2.814,-2.867c-1.701,-1.986 -1.701,-4.919 0,-6.907c1.906,-2.225 5.258,-2.485 7.485,-0.578l11.61,11.607c1.101,0.932 1.818,2.304 1.877,3.844c0.064,1.432 -0.449,2.885 -1.539,3.98l-11.894,11.893c-1.986,1.702 -4.919,1.702 -6.906,0c-2.227,-1.906 -2.487,-5.257 -0.579,-7.485l2.867,-2.867Zm-40.854,-10.619l18.663,-0l0,-26.548c0,-5.865 -4.755,-10.619 -10.618,-10.619l-34.088,-0c-5.863,-0 -10.617,4.754 -10.617,10.619l0,63.715c0,5.865 4.754,10.619 10.617,10.619l34.089,0c5.863,0 10.619,-4.754 10.619,-10.619l0,-26.548l-18.666,0c-2.932,0 -5.309,-2.377 -5.309,-5.308c0,-2.933 2.377,-5.311 5.31,-5.311Z" style="fill:#fff;"/></g></svg>