<?xml version="1.0" encoding="UTF-8" standalone="no"?><!DOCTYPE svg PUBLIC "-//W3C//DTD SVG 1.1//EN" "http://www.w3.org/Graphics/SVG/1.1/DTD/svg11.dtd"><svg width="100%" height="100%" viewBox="0 0 456 456" version="1.1" xmlns="http://www.w3.org/2000/svg" xmlns:xlink="http://www.w3.org/1999/xlink" xml:space="preserve" xmlns:serif="http://www.serif.com/" style="fill-rule:evenodd;clip-rule:evenodd;stroke-linejoin:round;stroke-miterlimit:2;"><g><rect x="84.869" y="85.87" width="11.462" height="284.261" style="fill:#fff;fill-opacity:0.11;"/><rect x="109.377" y="85.87" width="12.266" height="284.261" style="fill:#fff;fill-opacity:0.11;"/><rect x="134.69" y="85.87" width="7.605" height="284.261" style="fill:#fff;fill-opacity:0.11;"/><rect x="155.342" y="85.87" width="11.921" height="284.261" style="fill:#fff;fill-opacity:0.11;"/><rect x="180.31" y="85.87" width="15.414" height="284.261" style="fill:#fff;fill-opacity:0.11;"/><rect x="208.77" y="85.87" width="7.729" height="284.261" style="fill:#fff;fill-opacity:0.11;"/><rect x="229.545" y="85.87" width="9.144" height="284.261" style="fill:#fff;fill-opacity:0.11;"/><rect x="320.752" y="85.87" width="9.144" height="284.261" style="fill:#fff;fill-opacity:0.11;"/><rect x="251.736" y="85.87" width="5.301" height="284.261" style="fill:#fff;fill-opacity:0.11;"/><rect x="342.941" y="85.87" width="5.301" height="284.261" style="fill:#fff;fill-opacity:0.11;"/><rect x="270.083" y="85.87" width="9.842" height="284.261" style="fill:#fff;fill-opacity:0.11;"/><rect x="361.29" y="85.87" width="9.842" height="284.261" style="fill:#fff;fill-opacity:0.11;"/><rect x="292.973" y="85.87" width="14.732" height="284.261" style="fill:#fff;fill-opacity:0.11;"/><g><rect x="84.869" y="172.64" width="11.462" height="110.72" style="fill:#fff;"/><rect x="109.377" y="172.64" width="12.266" height="110.72" style="fill:#fff;"/><rect x="134.69" y="172.64" width="7.605" height="110.72" style="fill:#fff;"/><rect x="155.342" y="172.64" width="11.921" height="110.72" style="fill:#fff;"/><rect x="180.31" y="172.64" width="15.414" height="110.72" style="fill:#fff;"/><rect x="208.77" y="172.64" width="7.729" height="110.72" style="fill:#fff;"/><rect x="229.545" y="172.64" width="9.144" height="110.72" style="fill:#fff;"/><rect x="320.752" y="172.64" width="9.144" height="110.72" style="fill:#fff;"/><rect x="251.736" y="172.64" width="5.301" height="110.72" style="fill:#fff;"/><rect x="342.941" y="172.64" width="5.301" height="110.72" style="fill:#fff;"/><rect x="270.083" y="172.64" width="9.842" height="110.72" style="fill:#fff;"/><rect x="361.29" y="172.64" width="9.842" height="110.72" style="fill:#fff;"/><rect x="292.973" y="172.64" width="14.732" height="110.72" style="fill:#fff;"/></g><g><g><path d="M54.466,265.689c-0,-1.311 1.064,-2.375 2.375,-2.375c1.311,-0 2.375,1.064 2.375,2.375l0,50.913l70.433,-0c1.311,-0 2.376,1.064 2.376,2.375c-0,1.311 -1.065,2.375 -2.376,2.375l-72.808,0c-1.312,0 -2.375,-1.063 -2.375,-2.375l-0,-53.288Z" style="fill:#fff;"/><path d="M326.351,321.352c-1.311,0 -2.376,-1.064 -2.376,-2.375c0,-1.311 1.065,-2.375 2.376,-2.375l70.433,-0l0,-50.913c0,-1.311 1.064,-2.375 2.375,-2.375c1.311,-0 2.375,1.064 2.375,2.375l0,53.288c0,1.312 -1.063,2.375 -2.375,2.375l-72.808,0Z" style="fill:#fff;"/></g><g><path d="M59.216,190.311c-0,1.311 -1.064,2.375 -2.375,2.375c-1.311,0 -2.375,-1.064 -2.375,-2.375l-0,-53.288c-0,-1.312 1.063,-2.375 2.375,-2.375l72.808,-0c1.311,-0 2.376,1.064 2.376,2.375c-0,1.311 -1.065,2.375 -2.376,2.375l-70.433,0l-0,50.913Z" style="fill:#fff;"/><path d="M326.351,139.398c-1.311,0 -2.376,-1.064 -2.376,-2.375c0,-1.311 1.065,-2.375 2.376,-2.375l72.808,-0c1.312,-0 2.375,1.063 2.375,2.375l0,53.288c0,1.311 -1.064,2.375 -2.375,2.375c-1.311,0 -2.375,-1.064 -2.375,-2.375l-0,-50.913l-70.433,0Z" style="fill:#fff;"/></g></g></g></svg>