<?xml version="1.0" encoding="UTF-8" standalone="no"?><!DOCTYPE svg PUBLIC "-//W3C//DTD SVG 1.1//EN" "http://www.w3.org/Graphics/SVG/1.1/DTD/svg11.dtd"><svg width="100%" height="100%" viewBox="0 0 456 456" version="1.1" xmlns="http://www.w3.org/2000/svg" xmlns:xlink="http://www.w3.org/1999/xlink" xml:space="preserve" xmlns:serif="http://www.serif.com/" style="fill-rule:evenodd;clip-rule:evenodd;stroke-linejoin:round;stroke-miterlimit:2;"><rect x="119.869" y="120.625" width="8.66" height="214.751" style="fill:#fff;fill-opacity:0.11;"/><rect x="138.384" y="120.625" width="9.266" height="214.751" style="fill:#fff;fill-opacity:0.11;"/><rect x="157.507" y="120.625" width="5.746" height="214.751" style="fill:#fff;fill-opacity:0.11;"/><rect x="173.109" y="120.625" width="9.006" height="214.751" style="fill:#fff;fill-opacity:0.11;"/><rect x="191.971" y="120.625" width="11.645" height="214.751" style="fill:#fff;fill-opacity:0.11;"/><rect x="213.472" y="120.625" width="5.839" height="214.751" style="fill:#fff;fill-opacity:0.11;"/><rect x="229.167" y="120.625" width="6.908" height="214.751" style="fill:#fff;fill-opacity:0.11;"/><rect x="298.071" y="120.625" width="6.908" height="214.751" style="fill:#fff;fill-opacity:0.11;"/><rect x="245.932" y="120.625" width="4.004" height="214.751" style="fill:#fff;fill-opacity:0.11;"/><rect x="314.835" y="120.625" width="4.004" height="214.751" style="fill:#fff;fill-opacity:0.11;"/><rect x="259.793" y="120.625" width="7.436" height="214.751" style="fill:#fff;fill-opacity:0.11;"/><rect x="328.696" y="120.625" width="7.436" height="214.751" style="fill:#fff;fill-opacity:0.11;"/><rect x="277.085" y="120.625" width="11.13" height="214.751" style="fill:#fff;fill-opacity:0.11;"/><g><g><rect x="119.869" y="186.177" width="8.66" height="83.645" style="fill:#fff;"/><rect x="138.384" y="186.177" width="9.266" height="83.645" style="fill:#fff;"/><rect x="157.507" y="186.177" width="5.746" height="83.645" style="fill:#fff;"/><rect x="173.109" y="186.177" width="9.006" height="83.645" style="fill:#fff;"/><rect x="191.971" y="186.177" width="11.645" height="83.645" style="fill:#fff;"/><rect x="213.472" y="186.177" width="5.839" height="83.645" style="fill:#fff;"/><rect x="229.167" y="186.177" width="6.908" height="83.645" style="fill:#fff;"/><rect x="298.071" y="186.177" width="6.908" height="83.645" style="fill:#fff;"/><rect x="245.932" y="186.177" width="4.004" height="83.645" style="fill:#fff;"/><rect x="314.835" y="186.177" width="4.004" height="83.645" style="fill:#fff;"/><rect x="259.793" y="186.177" width="7.436" height="83.645" style="fill:#fff;"/><rect x="328.696" y="186.177" width="7.436" height="83.645" style="fill:#fff;"/><rect x="277.085" y="186.177" width="11.13" height="83.645" style="fill:#fff;"/></g></g><g><g><path d="M96.9,256.473c-0,-0.99 0.804,-1.794 1.794,-1.794c0.991,-0 1.795,0.804 1.795,1.794l-0,38.463l53.21,0c0.99,0 1.794,0.804 1.794,1.795c0,0.99 -0.804,1.794 -1.794,1.794l-55.005,-0c-0.991,-0 -1.794,-0.803 -1.794,-1.794l-0,-40.258Z" style="fill:#fff;"/><path d="M302.301,298.525c-0.99,-0 -1.794,-0.804 -1.794,-1.794c-0,-0.991 0.804,-1.795 1.794,-1.795l53.21,0l0,-38.463c0,-0.99 0.804,-1.794 1.795,-1.794c0.99,-0 1.794,0.804 1.794,1.794l0,40.258c0,0.991 -0.803,1.794 -1.794,1.794l-55.005,-0Z" style="fill:#fff;"/></g><g><path d="M100.489,199.527c-0,0.991 -0.804,1.795 -1.795,1.795c-0.99,-0 -1.794,-0.804 -1.794,-1.795l-0,-40.257c-0,-0.991 0.803,-1.795 1.794,-1.795l55.005,0c0.99,0 1.794,0.804 1.794,1.795c0,0.99 -0.804,1.794 -1.794,1.794l-53.21,-0l-0,38.463Z" style="fill:#fff;"/><path d="M302.301,161.064c-0.99,-0 -1.794,-0.804 -1.794,-1.794c-0,-0.991 0.804,-1.795 1.794,-1.795l55.005,0c0.991,0 1.794,0.804 1.794,1.795l0,40.257c0,0.991 -0.804,1.795 -1.794,1.795c-0.991,-0 -1.795,-0.804 -1.795,-1.795l0,-38.463l-53.21,-0Z" style="fill:#fff;"/></g></g></svg>